<svg width="44" height="44" viewBox="0 0 44 44" fill="none" xmlns="http://www.w3.org/2000/svg">
<mask id="mask0" mask-type="alpha" maskUnits="userSpaceOnUse" x="0" y="0" width="44" height="44">
<path d="M21.9663 2.59568e-05C17.6156 0.00669768 13.3646 1.30321 9.7506 3.72565C6.13667 6.14809 3.32215 9.58767 1.66285 13.6096C0.00355506 17.6314 -0.425994 22.055 0.428509 26.3209C1.28302 30.5869 3.3832 34.5037 6.46354 37.5762C9.54389 40.6486 13.4661 42.7388 17.7342 43.5825C22.0023 44.4261 26.4248 43.9852 30.4424 42.3157C34.4601 40.6461 37.8924 37.8228 40.3056 34.2027C42.7188 30.5826 44.0045 26.3283 44 21.9775C43.9851 16.1377 41.6525 10.5427 37.5147 6.42174C33.3769 2.30081 27.7724 -0.00893154 21.9325 2.59568e-05" fill="white"/>
</mask>
<g mask="url(#mask0)">
<path d="M42.5514 1.36804L1.30566 1.42563L1.36324 42.6601L42.6089 42.6025L42.5514 1.36804Z" fill="url(#paint0_linear)"/>
<path d="M5.46313 9.67913H38.4013C36.4827 7.1239 33.9958 5.05016 31.1375 3.62193C28.2791 2.19372 25.1276 1.4502 21.9322 1.4502C18.7369 1.4502 15.5854 2.19372 12.727 3.62193C9.86859 5.05016 7.38174 7.1239 5.46313 9.67913Z" fill="#191919"/>
<path d="M42.5384 21.9776C42.5385 20.5957 42.3991 19.2172 42.1224 17.8632L1.76477 17.9194C1.21578 20.6349 1.21578 23.4327 1.76477 26.1483L42.1224 26.0921C42.3946 24.7376 42.5302 23.3592 42.5271 21.9776" fill="#191919"/>
<path d="M21.9772 42.5834C25.1729 42.5817 28.3243 41.8351 31.1812 40.4027C34.038 38.9704 36.5218 36.8918 38.435 34.332H5.4856C7.40702 36.8881 9.89812 38.9608 12.761 40.3853C15.6238 41.81 18.7795 42.5472 21.9772 42.5385" fill="#191919"/>
<path d="M21.9663 1.42772C27.3406 1.55335 32.4525 3.77653 36.2092 7.62195C39.9657 11.4673 42.0688 16.6299 42.0688 22.0056C42.0688 27.3814 39.9657 32.5439 36.2092 36.3894C32.4525 40.2347 27.3406 42.458 21.9663 42.5836C16.5919 42.458 11.48 40.2347 7.72343 36.3894C3.96685 32.5439 1.86373 27.3814 1.86373 22.0056C1.86373 16.6299 3.96685 11.4673 7.72343 7.62195C11.48 3.77653 16.5919 1.55335 21.9663 1.42772ZM21.9663 2.59568e-05C17.6156 0.00669768 13.3646 1.30321 9.7506 3.72565C6.13667 6.14809 3.32215 9.58767 1.66285 13.6096C0.00355506 17.6314 -0.425994 22.055 0.428509 26.3209C1.28302 30.5869 3.3832 34.5037 6.46354 37.5762C9.54389 40.6486 13.4661 42.7388 17.7342 43.5825C22.0023 44.4261 26.4248 43.9852 30.4424 42.3157C34.4601 40.6461 37.8924 37.8228 40.3056 34.2027C42.7188 30.5826 44.0045 26.3283 44 21.9775C43.9851 16.1377 41.6525 10.5427 37.5147 6.42174C33.3769 2.30081 27.7724 -0.00893154 21.9325 2.59568e-05" fill="white"/>
</g>
<defs>
<linearGradient id="paint0_linear" x1="1.30566" y1="42.6601" x2="45.1383" y2="7.20822" gradientUnits="userSpaceOnUse">
<stop offset="0.015625" stop-color="#FF9900"/>
<stop offset="1" stop-color="#FFCD00"/>
</linearGradient>
</defs>
</svg>
