<svg width="27" height="31" viewBox="0 0 27 31" fill="none" xmlns="http://www.w3.org/2000/svg">
<path fill-rule="evenodd" clip-rule="evenodd" d="M27 25.9308H10.3891L11.836 23.3212L4.42765 31V25.9308C2.7492 25.9308 1.67846 25.9308 0 25.9308V0H27V25.9308ZM22.992 5.5641H20.3585L20.6334 16.2724H22.717L22.992 5.5641ZM20.4453 17.8321V20.3517H22.8762V17.8321H20.4453V17.8321ZM11.4309 5.38413C6.67042 5.38413 4.25402 9.17852 4.25402 12.9729C4.25402 16.7673 6.67042 20.5467 11.4309 20.5467C16.1913 20.5467 18.5498 16.7523 18.5498 12.9579C18.5498 9.16352 16.1913 5.38413 11.4309 5.38413ZM11.4309 8.12869C8.53698 8.12869 7.04662 10.5433 7.04662 12.9729C7.04662 15.4025 8.53698 17.8021 11.4309 17.8021C14.3248 17.8021 15.7572 15.3875 15.7572 12.9579C15.7572 10.5283 14.3392 8.12869 11.4309 8.12869Z" fill="#F0047F"/>
</svg>
